<?xml version="1.0" encoding="UTF-8" standalone="no"?>
<!-- Created with Inkscape (http://www.inkscape.org/) -->

<svg
   width="120"
   height="120"
   viewBox="0 0 120 120"
   version="1.1"
   id="svg1"
   xml:space="preserve"
   inkscape:version="1.4-beta (62f545b, 2024-04-22)"
   sodipodi:docname="BlossomLogo.svg"
   xmlns:inkscape="http://www.inkscape.org/namespaces/inkscape"
   xmlns:sodipodi="http://sodipodi.sourceforge.net/DTD/sodipodi-0.dtd"
   xmlns:xlink="http://www.w3.org/1999/xlink"
   xmlns="http://www.w3.org/2000/svg"
   xmlns:svg="http://www.w3.org/2000/svg"><sodipodi:namedview
     id="namedview1"
     pagecolor="#282828"
     bordercolor="#000000"
     borderopacity="0"
     inkscape:showpageshadow="2"
     inkscape:pageopacity="0.0"
     inkscape:pagecheckerboard="0"
     inkscape:deskcolor="#212121"
     inkscape:document-units="px"
     inkscape:zoom="4.796541"
     inkscape:cx="61.502654"
     inkscape:cy="53.788762"
     inkscape:window-width="1920"
     inkscape:window-height="1011"
     inkscape:window-x="1920"
     inkscape:window-y="32"
     inkscape:window-maximized="1"
     inkscape:current-layer="g1" /><defs
     id="defs1"><linearGradient
       id="linearGradient3"
       inkscape:collect="always"><stop
         style="stop-color:#fec9eb;stop-opacity:1;"
         offset="0"
         id="stop4" /><stop
         style="stop-color:#f947b8;stop-opacity:1;"
         offset="0.5"
         id="stop6" /><stop
         style="stop-color:#fe45c7;stop-opacity:1;"
         offset="1"
         id="stop5" /></linearGradient><linearGradient
       id="linearGradient1"
       inkscape:collect="always"><stop
         style="stop-color:#fe37b4;stop-opacity:1;"
         offset="0"
         id="stop1" /><stop
         style="stop-color:#fe5ec4;stop-opacity:1;"
         offset="0.5"
         id="stop3" /><stop
         style="stop-color:#fe86d1;stop-opacity:1;"
         offset="1"
         id="stop2" /></linearGradient><radialGradient
       inkscape:collect="always"
       xlink:href="#linearGradient1"
       id="radialGradient2"
       cx="256"
       cy="254.97383"
       fx="256"
       fy="254.97383"
       r="267.57947"
       gradientTransform="matrix(0.98395903,0,0,0.95106719,0.38887738,2.5499307)"
       gradientUnits="userSpaceOnUse" /><radialGradient
       inkscape:collect="always"
       xlink:href="#linearGradient3"
       id="radialGradient5"
       cx="252.28239"
       cy="245.04718"
       fx="252.28239"
       fy="245.04718"
       r="263.28719"
       gradientTransform="matrix(1,0,0,0.96657194,0,8.1914525)"
       gradientUnits="userSpaceOnUse" /></defs><g
     inkscape:label="Layer 1"
     inkscape:groupmode="layer"
     id="layer1"><g
       id="g1"
       transform="matrix(0.21591328,0,0,0.21591328,6.7842857,4.5966524)">
	<path
   class="st0"
   d="m 504.15228,203.80864 -45.12731,-9.59262 30.87073,-34.28605 C 464.92971,123.78325 410.96349,107.33342 354.98114,120.03732 349.76419,62.869295 317.44311,16.627157 275.35032,4.0541284 L 252.28239,44.009752 229.21445,4.0551124 C 187.12167,16.629125 154.80157,62.871263 149.58363,120.0383 93.602268,107.3344 39.635067,123.78423 14.670058,159.93095 l 30.870731,34.28507 -45.1282966,9.59262 C -0.63640793,247.72667 33.354456,292.7546 86.112371,315.3827 56.731355,364.69873 55.698198,421.10713 82.36152,456.02095 l 42.1469,-18.76508 -4.82238,45.88398 c 41.44435,14.56849 94.77296,-3.84433 132.59635,-47.02734 37.82338,43.18301 91.15199,61.59583 132.59635,47.02734 l -4.82238,-45.88398 42.14788,18.76607 c 26.66234,-34.91382 25.63017,-91.32223 -3.75085,-140.63924 52.75693,-22.62712 86.74779,-67.65603 85.69889,-111.57406 z"
   id="path1"
   sodipodi:nodetypes="ccccccccccccccccccccc"
   style="fill:url(#radialGradient2);stroke:url(#radialGradient5);stroke-width:22.7859;stroke-dasharray:none;stroke-opacity:1" />
<g
   id="g6"
   transform="matrix(8.2580712,0,0,8.2580712,-164.09486,-157.61357)"
   style="opacity:1;fill:#ffffff;fill-opacity:0.629935;stroke:none;stroke-width:0.560844;stroke-linecap:butt;stroke-linejoin:miter;stroke-dasharray:none;stroke-opacity:1;paint-order:stroke fill markers"><path
     d="m 60.194,53.002 -7.51,-2.44 4.641,-6.387 c 0.406,-0.559 0.283,-1.34 -0.275,-1.746 -0.559,-0.405 -1.34,-0.281 -1.746,0.276 l -4.642,6.388 -4.64,-6.389 c -0.406,-0.559 -1.188,-0.683 -1.746,-0.275 -0.559,0.405 -0.683,1.188 -0.277,1.746 l 4.641,6.387 -7.508,2.44 c -0.657,0.214 -1.017,0.919 -0.803,1.575 0.172,0.528 0.661,0.864 1.188,0.864 0.129,0 0.259,-0.021 0.387,-0.062 l 7.509,-2.439 v 7.895 c 0,0.69 0.56,1.25 1.25,1.25 0.69,0 1.25,-0.56 1.25,-1.25 V 52.94 l 7.509,2.439 c 0.129,0.041 0.259,0.062 0.387,0.062 0.527,0 1.018,-0.336 1.189,-0.864 0.212,-0.656 -0.147,-1.361 -0.804,-1.575 z"
     id="path1-2"
     style="fill:#ffffff;fill-opacity:0.629935;stroke:none;stroke-width:0.560844;stroke-linecap:butt;stroke-linejoin:miter;stroke-dasharray:none;stroke-opacity:1;paint-order:stroke fill markers" /><path
     d="m 50.817,45.372 c 0.605,0 1.332,-3.895 1.332,-6.905 0,-3.01 -0.597,-3.997 -1.332,-3.997 -0.736,0 -1.333,0.986 -1.333,3.997 0,3.011 0.727,6.905 1.333,6.905 z"
     id="path2"
     style="fill:#ffffff;fill-opacity:0.629935;stroke:none;stroke-width:0.560844;stroke-linecap:butt;stroke-linejoin:miter;stroke-dasharray:none;stroke-opacity:1;paint-order:stroke fill markers" /><path
     d="m 45.148,49.265 c 0.188,-0.576 -3.292,-2.47 -6.155,-3.4 -2.863,-0.93 -3.985,-0.668 -4.213,0.031 -0.228,0.701 0.526,1.573 3.39,2.504 2.863,0.929 6.792,1.442 6.978,0.865 z"
     id="path3"
     style="fill:#ffffff;fill-opacity:0.629935;stroke:none;stroke-width:0.560844;stroke-linecap:butt;stroke-linejoin:miter;stroke-dasharray:none;stroke-opacity:1;paint-order:stroke fill markers" /><path
     d="m 41.965,60.663 c -1.771,2.436 -1.868,3.584 -1.272,4.017 0.596,0.433 1.658,-0.016 3.429,-2.45 1.769,-2.436 3.47,-6.014 2.979,-6.37 -0.491,-0.356 -3.368,2.368 -5.136,4.803 z"
     id="path4"
     style="fill:#ffffff;fill-opacity:0.629935;stroke:none;stroke-width:0.560844;stroke-linecap:butt;stroke-linejoin:miter;stroke-dasharray:none;stroke-opacity:1;paint-order:stroke fill markers" /><path
     d="m 53.976,56.041 c -0.49,0.356 1.211,3.935 2.98,6.369 1.77,2.436 2.833,2.884 3.428,2.452 0.595,-0.435 0.498,-1.583 -1.272,-4.02 -1.77,-2.434 -4.646,-5.157 -5.136,-4.801 z"
     id="path5"
     style="fill:#ffffff;fill-opacity:0.629935;stroke:none;stroke-width:0.560844;stroke-linecap:butt;stroke-linejoin:miter;stroke-dasharray:none;stroke-opacity:1;paint-order:stroke fill markers" /><path
     d="m 62.427,46.157 c -2.862,0.931 -6.342,2.826 -6.154,3.401 0.188,0.576 4.115,0.063 6.979,-0.866 2.864,-0.929 3.617,-1.803 3.39,-2.503 -0.23,-0.7 -1.351,-0.962 -4.215,-0.032 z"
     id="path6"
     style="fill:#ffffff;fill-opacity:0.629935;stroke:none;stroke-width:0.560844;stroke-linecap:butt;stroke-linejoin:miter;stroke-dasharray:none;stroke-opacity:1;paint-order:stroke fill markers" /></g></g></g><style
     type="text/css"
     id="style1">
	.st0{fill:#000000;}
</style></svg>
